<?xml version="1.0" encoding="UTF-8" standalone="no"?> <svg width="32" height="32" viewBox="0 0 32 32" fill="none" xmlns="http://www.w3.org/2000/svg">
<path d="M14 19C13.7348 19 13.4804 19.1054 13.2929 19.2929C13.1054 19.4804 13 19.7348 13 20V24H4V8H13V12C13 12.2652 13.1054 12.5196 13.2929 12.7071C13.4804 12.8946 13.7348 13 14 13C14.2652 13 14.5196 12.8946 14.7071 12.7071C14.8946 12.5196 15 12.2652 15 12V7C15 6.73478 14.8946 6.48043 14.7071 6.29289C14.5196 6.10536 14.2652 6 14 6H3C2.73478 6 2.48043 6.10536 2.29289 6.29289C2.10536 6.48043 2 6.73478 2 7V25C2 25.2652 2.10536 25.5196 2.29289 25.7071C2.48043 25.8946 2.73478 26 3 26H14C14.2652 26 14.5196 25.8946 14.7071 25.7071C14.8946 25.5196 15 25.2652 15 25V20C15 19.7348 14.8946 19.4804 14.7071 19.2929C14.5196 19.1054 14.2652 19 14 19Z" fill="#027878"/>
<path d="M29 6H18C17.7348 6 17.4804 6.10536 17.2929 6.29289C17.1054 6.48043 17 6.73478 17 7V12C17 12.2652 17.1054 12.5196 17.2929 12.7071C17.4804 12.8946 17.7348 13 18 13C18.2652 13 18.5196 12.8946 18.7071 12.7071C18.8946 12.5196 19 12.2652 19 12V8H28V24H19V20C19 19.7348 18.8946 19.4804 18.7071 19.2929C18.5196 19.1054 18.2652 19 18 19C17.7348 19 17.4804 19.1054 17.2929 19.2929C17.1054 19.4804 17 19.7348 17 20V25C17 25.2652 17.1054 25.5196 17.2929 25.7071C17.4804 25.8946 17.7348 26 18 26H29C29.2652 26 29.5196 25.8946 29.7071 25.7071C29.8946 25.5196 30 25.2652 30 25V7C30 6.73478 29.8946 6.48043 29.7071 6.29289C29.5196 6.10536 29.2652 6 29 6Z" fill="#027878"/>
<path d="M7 16.0002C7 16.2654 7.10536 16.5198 7.29289 16.7073C7.48043 16.8948 7.73478 17.0002 8 17.0002H22.59L22.29 17.2902C22.1963 17.3831 22.1219 17.4937 22.0711 17.6156C22.0203 17.7375 21.9942 17.8682 21.9942 18.0002C21.9942 18.1322 22.0203 18.2629 22.0711 18.3848C22.1219 18.5066 22.1963 18.6172 22.29 18.7102C22.383 18.8039 22.4936 18.8783 22.6154 18.9291C22.7373 18.9798 22.868 19.006 23 19.006C23.132 19.006 23.2627 18.9798 23.3846 18.9291C23.5064 18.8783 23.617 18.8039 23.71 18.7102L25.71 16.7102C25.8037 16.6172 25.8781 16.5066 25.9289 16.3848C25.9797 16.2629 26.0058 16.1322 26.0058 16.0002C26.0058 15.8682 25.9797 15.7375 25.9289 15.6156C25.8781 15.4937 25.8037 15.3831 25.71 15.2902L23.71 13.2902C23.6168 13.1969 23.5061 13.123 23.3842 13.0725C23.2624 13.0221 23.1319 12.9961 23 12.9961C22.7337 12.9961 22.4783 13.1019 22.29 13.2902C22.1968 13.3834 22.1228 13.4941 22.0723 13.6159C22.0219 13.7378 21.9959 13.8683 21.9959 14.0002C21.9959 14.2665 22.1017 14.5219 22.29 14.7102L22.59 15.0002H8C7.73478 15.0002 7.48043 15.1055 7.29289 15.2931C7.10536 15.4806 7 15.735 7 16.0002Z" fill="#027878"/>
</svg>
