<?xml version="1.0" encoding="UTF-8" standalone="no"?> <svg width="25" height="25" viewBox="0 0 64 64" fill="none" xmlns="http://www.w3.org/2000/svg">
<path d="M37 29H51.5C53.2 29.1 54.2 26.8 52.9 25.6L47.1 19.8L61.4 5.4C62.2 4.6 62.2 3.4 61.4 2.6C60.6 1.8 59.4 1.8 58.6 2.6L44.3 16.9L38.5 11.1C37.3 9.9 35 10.8 35.1 12.5V27C35 28.1 35.9 29 37 29ZM39 17.3L46.7 25H39V17.3Z" fill="#027878"/>
<path d="M27 10.5C26.4 10.5 25.9 10.7 25.6 11.1L19.8 16.9L5.4 2.6C4.6 1.8 3.4 1.8 2.6 2.6C1.8 3.4 1.8 4.6 2.6 5.4L16.9 19.7L11.1 25.5C9.9 26.7 10.8 29 12.5 28.9H27C28.1 28.9 29 28 29 26.9V12.5C29 11.4 28.1 10.5 27 10.5ZM25 25H17.3L25 17.3V25Z" fill="#027878"/>
<path d="M47.1 44.3001L52.9 38.5001C54.1 37.3001 53.2 35.0001 51.5 35.1001H37C35.9 35.1001 35 36.0001 35 37.1001V51.6001C34.9 53.3001 37.2 54.3001 38.4 53.0001L44.2 47.2001L58.5 61.5001C59 61.8001 59.5 62.0001 60 62.0001C60.5 62.0001 61 61.8001 61.4 61.4001C62.2 60.6001 62.2 59.4001 61.4 58.6001L47.1 44.3001ZM39 46.7001V39.0001H46.7L39 46.7001Z" fill="#027878"/>
<path d="M27 35H12.5C10.8 34.9 9.8 37.2 11.1 38.4L16.9 44.2L2.6 58.6C1.8 59.4 1.8 60.6 2.6 61.4C3 61.8 3.5 62 4 62C4.5 62 5 61.8 5.4 61.4L19.7 47.1L25.5 52.9C26.7 54.2 29 53.2 28.9 51.5V37C29 35.9 28.1 35 27 35ZM25 46.7L17.3 39H25V46.7Z" fill="#027878"/>
</svg>
