<svg xmlns="http://www.w3.org/2000/svg" version="1.0" width="883.000000pt" height="283.000000pt" viewBox="0 0 883.000000 283.000000" preserveAspectRatio="xMidYMid meet">

<g transform="translate(0.000000,283.000000) scale(0.100000,-0.100000)" fill="#278c8c" stroke="none">
<path d="M1632 2749 c-46 -9 -86 -19 -88 -22 -4 -3 62 -357 87 -470 10 -42 14 -47 33 -41 11 3 24 9 28 13 4 3 -2 49 -13 101 -10 52 -19 98 -19 101 0 3 36 13 81 22 167 33 223 87 201 196 -9 43 -20 64 -47 89 -33 30 -38 32 -107 31 -40 -1 -110 -10 -156 -20z m201 -40 c65 -29 68 -142 6 -175 -34 -17 -178 -48 -186 -40 -11 11 -44 189 -36 197 10 9 105 26 155 28 20 0 48 -4 61 -10z"/>
<path d="M1294 2680 c-21 -8 -21 -11 -9 -72 7 -35 30 -150 51 -256 l37 -193 26 6 c14 4 27 8 29 10 3 3 -84 462 -94 498 -6 19 -9 20 -40 7z"/>
<path d="M1073 2632 c-10 -9 -38 -77 -63 -150 -25 -72 -47 -132 -51 -132 -3 0 -49 50 -103 110 -88 100 -100 110 -132 110 -19 0 -34 -3 -34 -6 0 -3 55 -64 123 -135 l122 -130 17 -82 c10 -45 20 -92 23 -104 4 -16 13 -23 30 -23 13 0 26 4 29 8 3 4 -4 53 -16 109 l-20 100 66 167 c36 92 66 169 66 171 0 12 -42 3 -57 -13z"/>
<path d="M454 2519 l-41 -10 -12 -102 c-7 -56 -19 -163 -27 -237 -8 -74 -17 -136 -18 -137 -2 -2 -20 29 -41 69 -37 72 -185 340 -191 347 -2 2 -25 -1 -51 -6 -57 -10 -57 22 3 -286 24 -125 44 -230 44 -232 0 -9 49 -5 55 5 3 5 -12 103 -35 216 -22 114 -38 209 -36 211 5 5 22 -22 131 -219 80 -144 102 -178 120 -178 45 0 51 17 74 215 28 237 32 262 41 244 4 -8 24 -102 45 -209 20 -107 41 -199 45 -203 14 -16 50 3 50 26 -1 47 -96 491 -105 493 -5 1 -29 -2 -51 -7z"/>
</g>
</svg>