<svg width="498.0875px" height="122px" xmlns="http://www.w3.org/2000/svg" viewBox="0.9562500000000114 14 498.0875 122" style="background: rgba(0, 0, 0, 0);" preserveAspectRatio="xMidYMid"><defs><filter id="editing-extrusion" x="-100%" y="-100%" width="300%" height="300%"><feFlood result="color1" flood-color="#c1b5b5"></feFlood><feConvolveMatrix order="8,8" divisor="1" kernelMatrix="1 0 0 0 0 0 0 0 0 1 0 0 0 0 0 0 0 0 1 0 0 0 0 0 0 0 0 1 0 0 0 0 0 0 0 0 1 0 0 0 0 0 0 0 0 1 0 0 0 0 0 0 0 0 1 0 0 0 0 0 0 0 0 1" in="SourceAlpha" result="extrude"></feConvolveMatrix><feComposite in="color1" in2="extrude" result="comp-extrude" operator="in"></feComposite><feOffset dx="4" dy="4" in="comp-extrude" result="offset-extrude"></feOffset><feMerge><feMergeNode in="offset-extrude"></feMergeNode><feMergeNode in="SourceGraphic"></feMergeNode></feMerge></filter></defs><g filter="url(#editing-extrusion)"><g transform="translate(75.02880644798279, 104.79000091552734)"><path d="M47.17 1.28L47.17 1.28L47.17 1.28Q39.42 1.28 39.42-4.74L39.42-4.74L39.42-4.74Q39.42-7.36 40.54-12.45L40.54-12.45L40.54-12.45Q41.66-17.54 42.05-19.58L42.05-19.58L42.05-19.58Q42.94-24.26 42.94-25.73L42.94-25.73L42.94-25.73Q42.94-28.99 40.51-28.99L40.51-28.99L40.51-28.99Q38.91-28.99 37.38-26.78L37.38-26.78L37.38-26.78Q35.84-24.58 35.14-20.16L35.14-20.16L31.17 0L18.69 1.28L22.14-16.13L22.14-16.13Q22.72-19.01 23.23-22.27L23.23-22.27L23.23-22.27Q23.74-25.54 23.74-26.05L23.74-26.05L23.74-26.05Q23.74-28.99 21.57-28.99L21.57-28.99L21.57-28.99Q20.10-28.99 18.50-26.82L18.50-26.82L18.50-26.82Q16.90-24.64 16-20.16L16-20.16L12.10 0L-0.51 1.28L6.21-32.64L16.64-33.92L15.55-27.46L15.55-27.46Q17.22-30.91 20.29-32.42L20.29-32.42L20.29-32.42Q23.36-33.92 28.16-33.92L28.16-33.92L28.16-33.92Q30.91-33.92 32.70-32.58L32.70-32.58L32.70-32.58Q34.50-31.23 35.07-29.06L35.07-29.06L35.07-29.06Q36.16-31.30 38.94-32.61L38.94-32.61L38.94-32.61Q41.73-33.92 45.15-33.92L45.15-33.92L45.15-33.92Q48.58-33.92 50.27-33.18L50.27-33.18L50.27-33.18Q51.97-32.45 52.99-31.23L52.99-31.23L52.99-31.23Q54.72-28.99 54.72-24.90L54.72-24.90L54.72-24.90Q54.72-20.86 52.99-12.48L52.99-12.48L52.99-12.48Q52.10-8.38 52.10-6.88L52.10-6.88L52.10-6.88Q52.10-5.38 52.96-4.48L52.96-4.48L52.96-4.48Q53.82-3.58 55.10-3.46L55.10-3.46L55.10-3.46Q54.46-1.28 52.26 0L52.26 0L52.26 0Q50.05 1.28 47.17 1.28ZM80.38-7.23L80.38-7.23L80.38-7.23Q77.06-3.78 70.98-3.78L70.98-3.78L70.98-3.78Q63.36-3.78 61.76-9.34L61.76-9.34L61.76-9.34Q61.25-11.01 61.25-12.86L61.25-12.86L61.25-12.86Q61.25-14.72 61.63-16.64L61.63-16.64L64.64-32.64L77.63-33.92L74.11-15.30L74.11-15.30Q73.98-14.46 73.79-13.57L73.79-13.57L73.79-13.57Q73.60-12.67 73.60-11.74L73.60-11.74L73.60-11.74Q73.60-10.82 73.92-10.21L73.92-10.21L73.92-10.21Q74.24-9.60 74.69-9.22L74.69-9.22L74.69-9.22Q75.46-8.70 76.83-8.70L76.83-8.70L76.83-8.70Q78.21-8.70 79.39-10.37L79.39-10.37L79.39-10.37Q80.58-12.03 81.15-14.91L81.15-14.91L84.67-32.64L97.28-33.92L92.48-8.77L92.48-8.77Q90.11 3.52 85.25 8.38L85.25 8.38L85.25 8.38Q82.75 10.88 79.52 11.87L79.52 11.87L79.52 11.87Q76.29 12.86 72.13 12.86L72.13 12.86L72.13 12.86Q65.41 12.86 61.57 10.75L61.57 10.75L61.57 10.75Q57.73 8.64 57.73 5.12L57.73 5.12L57.73 5.12Q57.73 2.50 59.71 0.99L59.71 0.99L59.71 0.99Q61.70-0.51 64.77-0.51L64.77-0.51L64.77-0.51Q67.46-0.51 69.50 0.64L69.50 0.64L69.50 0.64Q70.72 1.34 71.30 2.24L71.30 2.24L71.30 2.24Q69.82 3.52 69.82 5.63L69.82 5.63L69.82 5.63Q69.82 8.45 72.38 8.45L72.38 8.45L72.38 8.45Q76.61 8.45 79.04-1.28L79.04-1.28L79.04-1.28Q79.74-4.16 80.38-7.23ZM114.94-3.52L114.94-3.52L114.94-3.52Q112.96 1.28 106.62 1.28L106.62 1.28L106.62 1.28Q103.36 1.28 101.31-0.96L101.31-0.96L101.31-0.96Q99.58-2.94 99.58-4.93L99.58-4.93L99.58-4.93Q99.58-10.11 101.95-20.22L101.95-20.22L104.32-32.64L117.31-33.92L113.41-13.70L113.41-13.70Q112.32-8.96 112.32-7.30L112.32-7.30L112.32-7.30Q112.32-3.65 114.94-3.52ZM105.47-41.54L105.47-41.54L105.47-41.54Q105.47-44.03 107.55-45.38L107.55-45.38L107.55-45.38Q109.63-46.72 112.64-46.72L112.64-46.72L112.64-46.72Q115.65-46.72 117.47-45.38L117.47-45.38L117.47-45.38Q119.30-44.03 119.30-41.54L119.30-41.54L119.30-41.54Q119.30-39.04 117.28-37.76L117.28-37.76L117.28-37.76Q115.26-36.48 112.26-36.48L112.26-36.48L112.26-36.48Q109.25-36.48 107.36-37.76L107.36-37.76L107.36-37.76Q105.47-39.04 105.47-41.54ZM150.21-4.38L150.21-4.38L150.21-4.38Q147.52-1.66 143.84-0.19L143.84-0.19L143.84-0.19Q140.16 1.28 136.51 1.28L136.51 1.28L136.51 1.28Q132.86 1.28 131.58 0.64L131.58 0.64L129.60 11.52L116.61 12.80L125.44-32.64L135.87-33.73L135.04-29.31L135.04-29.31Q137.73-33.86 143.30-33.86L143.30-33.86L143.30-33.86Q149.57-33.86 152.90-29.82L152.90-29.82L152.90-29.82Q155.84-26.18 155.84-20.61L155.84-20.61L155.84-20.61Q155.84-15.04 154.37-11.07L154.37-11.07L154.37-11.07Q152.90-7.10 150.21-4.38ZM135.74-22.34L132.35-3.58L132.35-3.58Q133.70-2.43 135.36-2.43L135.36-2.43L135.36-2.43Q137.02-2.43 137.98-3.07L137.98-3.07L137.98-3.07Q138.94-3.71 139.65-4.99L139.65-4.99L139.65-4.99Q141.57-8.45 143.10-18.94L143.10-18.94L143.10-18.94Q143.55-22.02 143.55-25.02L143.55-25.02L143.55-25.02Q143.55-28.03 142.88-28.99L142.88-28.99L142.88-28.99Q142.21-29.95 140.93-29.95L140.93-29.95L140.93-29.95Q137.02-29.95 135.74-22.34L135.74-22.34ZM175.04-3.52L175.04-3.52L175.04-3.52Q173.06 1.28 166.72 1.28L166.72 1.28L166.72 1.28Q163.46 1.28 161.41-0.96L161.41-0.96L161.41-0.96Q159.68-2.94 159.68-4.93L159.68-4.93L159.68-4.93Q159.68-10.11 162.05-20.22L162.05-20.22L164.42-32.64L177.41-33.92L173.50-13.70L173.50-13.70Q172.42-8.96 172.42-7.30L172.42-7.30L172.42-7.30Q172.42-3.65 175.04-3.52ZM165.57-41.54L165.57-41.54L165.57-41.54Q165.57-44.03 167.65-45.38L167.65-45.38L167.65-45.38Q169.73-46.72 172.74-46.72L172.74-46.72L172.74-46.72Q175.74-46.72 177.57-45.38L177.57-45.38L177.57-45.38Q179.39-44.03 179.39-41.54L179.39-41.54L179.39-41.54Q179.39-39.04 177.38-37.76L177.38-37.76L177.38-37.76Q175.36-36.48 172.35-36.48L172.35-36.48L172.35-36.48Q169.34-36.48 167.46-37.76L167.46-37.76L167.46-37.76Q165.57-39.04 165.57-41.54ZM226.56 1.28L226.56 1.28L226.56 1.28Q218.82 1.28 218.82-4.74L218.82-4.74L218.82-4.74Q218.82-7.36 219.94-12.45L219.94-12.45L219.94-12.45Q221.06-17.54 221.44-19.58L221.44-19.58L221.44-19.58Q222.34-24.26 222.34-25.73L222.34-25.73L222.34-25.73Q222.34-28.99 219.90-28.99L219.90-28.99L219.90-28.99Q218.30-28.99 216.77-26.78L216.77-26.78L216.77-26.78Q215.23-24.58 214.53-20.16L214.53-20.16L210.56 0L198.08 1.28L201.54-16.13L201.54-16.13Q202.11-19.01 202.62-22.27L202.62-22.27L202.62-22.27Q203.14-25.54 203.14-26.05L203.14-26.05L203.14-26.05Q203.14-28.99 200.96-28.99L200.96-28.99L200.96-28.99Q199.49-28.99 197.89-26.82L197.89-26.82L197.89-26.82Q196.29-24.64 195.39-20.16L195.39-20.16L191.49 0L178.88 1.28L185.60-32.64L196.03-33.92L194.94-27.46L194.94-27.46Q196.61-30.91 199.68-32.42L199.68-32.42L199.68-32.42Q202.75-33.92 207.55-33.92L207.55-33.92L207.55-33.92Q210.30-33.92 212.10-32.58L212.10-32.58L212.10-32.58Q213.89-31.23 214.46-29.06L214.46-29.06L214.46-29.06Q215.55-31.30 218.34-32.61L218.34-32.61L218.34-32.61Q221.12-33.92 224.54-33.92L224.54-33.92L224.54-33.92Q227.97-33.92 229.66-33.18L229.66-33.18L229.66-33.18Q231.36-32.45 232.38-31.23L232.38-31.23L232.38-31.23Q234.11-28.99 234.11-24.90L234.11-24.90L234.11-24.90Q234.11-20.86 232.38-12.48L232.38-12.48L232.38-12.48Q231.49-8.38 231.49-6.88L231.49-6.88L231.49-6.88Q231.49-5.38 232.35-4.48L232.35-4.48L232.35-4.48Q233.22-3.58 234.50-3.46L234.50-3.46L234.50-3.46Q233.86-1.28 231.65 0L231.65 0L231.65 0Q229.44 1.28 226.56 1.28ZM242.21-1.92L242.21-1.92L242.21-1.92Q240.70-3.58 240.03-6.21L240.03-6.21L240.03-6.21Q239.36-8.83 239.36-13.12L239.36-13.12L239.36-13.12Q239.36-17.41 240.83-21.31L240.83-21.31L240.83-21.31Q242.30-25.22 244.99-28.03L244.99-28.03L244.99-28.03Q250.50-33.92 259.58-33.92L259.58-33.92L259.58-33.92Q262.85-33.92 265.22-32.83L265.22-32.83L276.16-33.92L271.42-8.96L271.42-8.96Q271.23-8.19 271.23-6.78L271.23-6.78L271.23-6.78Q271.23-5.38 272.10-4.48L272.10-4.48L272.10-4.48Q272.96-3.58 274.24-3.46L274.24-3.46L274.24-3.46Q273.60-1.28 271.26 0L271.26 0L271.26 0Q268.93 1.28 266.30 1.28L266.30 1.28L266.30 1.28Q263.68 1.28 261.92 0.29L261.92 0.29L261.92 0.29Q260.16-0.70 259.65-2.37L259.65-2.37L259.65-2.37Q258.62-0.77 256.45 0.26L256.45 0.26L256.45 0.26Q254.27 1.28 251.36 1.28L251.36 1.28L251.36 1.28Q248.45 1.28 246.08 0.51L246.08 0.51L246.08 0.51Q243.71-0.26 242.21-1.92ZM255.71-27.90L255.71-27.90L255.71-27.90Q254.98-26.75 254.34-24.80L254.34-24.80L254.34-24.80Q253.70-22.85 252.64-17.63L252.64-17.63L252.64-17.63Q251.58-12.42 251.58-8.70L251.58-8.70L251.58-8.70Q251.58-4.99 252.16-3.90L252.16-3.90L252.16-3.90Q252.74-2.82 253.76-2.82L253.76-2.82L253.76-2.82Q255.81-2.82 257.31-4.77L257.31-4.77L257.31-4.77Q258.82-6.72 259.39-10.18L259.39-10.18L262.78-28.93L262.78-28.93Q261.44-30.08 259.87-30.08L259.87-30.08L259.87-30.08Q258.30-30.08 257.38-29.57L257.38-29.57L257.38-29.57Q256.45-29.06 255.71-27.90ZM283.90-26.75L283.90-26.75L283.90-26.75Q286.08-29.82 289.38-31.87L289.38-31.87L289.38-31.87Q292.67-33.92 296.70-33.92L296.70-33.92L296.70-33.92Q300.74-33.92 302.66-32.64L302.66-32.64L315.20-33.92L310.85-9.34L310.85-9.34Q308.61 3.20 303.87 8.13L303.87 8.13L303.87 8.13Q299.33 12.80 290.50 12.80L290.50 12.80L290.50 12.80Q283.78 12.80 279.94 10.69L279.94 10.69L279.94 10.69Q276.10 8.58 276.10 5.06L276.10 5.06L276.10 5.06Q276.10 2.43 278.08 0.93L278.08 0.93L278.08 0.93Q280.06-0.58 283.14-0.58L283.14-0.58L283.14-0.58Q285.82-0.58 287.87 0.64L287.87 0.64L287.87 0.64Q289.09 1.28 289.66 2.18L289.66 2.18L289.66 2.18Q288.19 3.46 288.19 5.57L288.19 5.57L288.19 5.57Q288.19 8.32 290.75 8.32L290.75 8.32L290.75 8.32Q295.04 8.32 297.47-1.79L297.47-1.79L297.47-1.79Q298.18-4.54 298.75-7.30L298.75-7.30L298.75-7.30Q295.87-3.78 289.34-3.78L289.34-3.78L289.34-3.78Q284.80-3.78 282.18-5.95L282.18-5.95L282.18-5.95Q279.55-8.13 279.55-13.25L279.55-13.25L279.55-13.25Q279.55-16.45 280.64-20.06L280.64-20.06L280.64-20.06Q281.73-23.68 283.90-26.75ZM292.22-13.06L292.22-13.06L292.22-13.06Q292.22-8.70 294.46-8.70L294.46-8.70L294.46-8.70Q296.00-8.70 297.47-10.37L297.47-10.37L297.47-10.37Q298.62-11.71 299.07-13.70L299.07-13.70L302.34-30.14L302.34-30.14Q302.02-30.21 301.70-30.34L301.70-30.34L301.70-30.34Q301.06-30.59 300.22-30.59L300.22-30.59L300.22-30.59Q296.32-30.59 294.02-24.19L294.02-24.19L294.02-24.19Q292.22-19.20 292.22-13.06ZM343.62-10.82L343.62-10.82L343.62-10.82Q345.22-9.73 345.22-7.33L345.22-7.33L345.22-7.33Q345.22-4.93 344.00-3.39L344.00-3.39L344.00-3.39Q342.78-1.86 340.80-0.83L340.80-0.83L340.80-0.83Q336.70 1.28 332.29 1.28L332.29 1.28L332.29 1.28Q327.87 1.28 325.28 0.32L325.28 0.32L325.28 0.32Q322.69-0.64 320.96-2.43L320.96-2.43L320.96-2.43Q317.57-5.82 317.57-12.03L317.57-12.03L317.57-12.03Q317.57-21.70 322.82-27.58L322.82-27.58L322.82-27.58Q328.45-33.92 338.24-33.92L338.24-33.92L338.24-33.92Q344.32-33.92 347.33-31.36L347.33-31.36L347.33-31.36Q349.57-29.44 349.57-26.30L349.57-26.30L349.57-26.30Q349.57-15.04 330.11-15.04L330.11-15.04L330.11-15.04Q329.86-13.38 329.86-11.97L329.86-11.97L329.86-11.97Q329.86-9.02 331.17-7.90L331.17-7.90L331.17-7.90Q332.48-6.78 334.91-6.78L334.91-6.78L334.91-6.78Q337.34-6.78 339.94-7.90L339.94-7.90L339.94-7.90Q342.53-9.02 343.62-10.82ZM330.56-17.79L330.56-17.79L330.56-17.79Q335.10-17.79 337.73-20.61L337.73-20.61L337.73-20.61Q340.35-23.30 340.35-27.58L340.35-27.58L340.35-27.58Q340.35-29.06 339.81-29.86L339.81-29.86L339.81-29.86Q339.26-30.66 338.18-30.66L338.18-30.66L338.18-30.66Q337.09-30.66 336.16-30.24L336.16-30.24L336.16-30.24Q335.23-29.82 334.27-28.42L334.27-28.42L334.27-28.42Q331.90-25.22 330.56-17.79Z" fill="#009b9b"></path></g></g><style>text {
  font-size: 64px;
  font-family: Arial Black;
  dominant-baseline: central;
  text-anchor: middle;
}</style></svg>